<?xml version="1.0" encoding="utf-8"?>
<!-- Generator: Adobe Illustrator 26.4.1, SVG Export Plug-In . SVG Version: 6.00 Build 0)  -->
<svg version="1.1" id="Слой_1" xmlns="http://www.w3.org/2000/svg" x="0px" y="300px"
	 viewBox="20 0 800 150" width="600" height="200" style="enable-background:new 0 0 300 300;" xml:space="preserve">
<style type="text/css">
	.st0{fill:#B74C7D;}
</style>
<g>
	<path class="st0" d="M118.3,88.9h7.2c0.3-3.2,1.1-6.1,2.6-8.8c1.5-2.6,3.5-4.9,5.9-6.8c2.4-1.9,5.3-3.4,8.5-4.5
		c3.2-1.1,6.8-1.6,10.5-1.6c3.9,0,7.5,0.6,10.9,1.7c3.4,1.1,6.3,2.8,8.8,4.8c2.5,2.1,4.4,4.5,5.8,7.4c1.4,2.9,2.1,6,2.1,9.4
		c0,3.4-0.8,6.5-2.3,9.4c-1.5,2.9-3.5,5.3-6.1,7.4c-2.5,2.1-5.5,3.7-8.8,4.9c-3.3,1.2-6.8,1.8-10.5,1.8c-3.5,0-6.9-0.5-10.2-1.6
		c-3.3-1-6.3-2.6-8.8-4.5c-2.6-2-4.6-4.5-6.2-7.4c-1.6-2.9-2.3-6.3-2.3-10.1h-7.1v21.3l4.5,0.7v1h-24v-1l4.5-0.7V69.5l-4.5-0.7v-1
		h24v1l-4.5,0.7V88.9z M156.9,112.3c1.6,0,2.9-0.4,4.2-1.1c1.2-0.8,2.2-1.8,3.1-3.1c0.8-1.3,1.5-2.8,1.9-4.5
		c0.4-1.7,0.6-3.6,0.6-5.6c0-1.6-0.2-3.5-0.5-5.6c-0.3-2.1-0.8-4.2-1.4-6.3c-0.6-2.1-1.4-4.2-2.4-6.3c-1-2-2.1-3.8-3.4-5.4
		s-2.8-2.9-4.4-3.8c-1.6-1-3.4-1.5-5.4-1.5c-1.6,0-2.9,0.4-4.2,1.1c-1.2,0.8-2.2,1.8-3.1,3.1c-0.8,1.3-1.5,2.8-1.9,4.6
		c-0.4,1.7-0.7,3.6-0.7,5.6c0,1.6,0.2,3.5,0.5,5.6c0.3,2.1,0.8,4.2,1.4,6.3c0.6,2.1,1.4,4.2,2.4,6.3c1,2,2.1,3.8,3.4,5.4
		c1.3,1.6,2.8,2.9,4.4,3.8C153.1,111.8,154.9,112.3,156.9,112.3z"/>
	<path class="st0" d="M184.6,113.4v-1l4.5-0.7V82.5l-4.5-0.7v-1h29.5c3,0,5.4,0.7,7.1,2.1c1.8,1.4,2.6,3.3,2.6,5.7
		c0,1.2-0.3,2.2-0.8,3c-0.6,0.8-1.3,1.5-2.2,2.1c-0.9,0.5-1.9,1-3.1,1.2c-1.1,0.3-2.3,0.4-3.4,0.4v0.3c1.8,0,3.4,0.2,4.9,0.5
		c1.5,0.3,2.8,0.8,3.8,1.5c1.1,0.7,1.9,1.5,2.5,2.5c0.6,1,0.9,2.2,0.9,3.5c0,3.5-1.3,6-3.9,7.5c-2.6,1.5-6.4,2.2-11.3,2.2H184.6z
		 M202.5,94.7h4.4c0.7,0,1.3-0.2,1.8-0.5c0.5-0.3,0.9-0.8,1.2-1.4c0.3-0.6,0.6-1.2,0.7-2c0.1-0.7,0.2-1.5,0.2-2.2
		c0-0.6-0.1-1.3-0.2-2c-0.2-0.7-0.4-1.4-0.7-2c-0.3-0.6-0.8-1.1-1.3-1.5c-0.6-0.4-1.3-0.6-2.1-0.6h-4V94.7z M202.5,111.8h4
		c1.3,0,2.3-0.2,3.2-0.7c0.9-0.4,1.6-1,2.2-1.7c0.6-0.7,1-1.6,1.2-2.6c0.2-1,0.4-2,0.4-3.1c0-2.5-0.5-4.3-1.6-5.5
		c-1-1.2-2.8-1.8-5.4-1.8h-4V111.8z"/>
	<path class="st0" d="M263.1,95.4h-22.8c0.3,1.8,0.7,3.6,1.4,5.6c0.7,2,1.5,3.7,2.6,5.4c1,1.6,2.2,3,3.4,4.1
		c1.3,1.1,2.6,1.6,4.1,1.6c1.4,0,2.6-0.2,3.6-0.7c1-0.5,2-1.2,2.7-2c0.8-0.8,1.4-1.7,1.9-2.8c0.5-1,0.9-2,1.1-3.1h1
		c-0.3,1.1-0.6,2.2-1.1,3.5c-0.5,1.2-1.2,2.4-2.2,3.4c-1,1.1-2.3,1.9-4,2.7c-1.6,0.7-3.7,1.1-6.3,1.1c-2.5,0-5-0.3-7.4-1
		c-2.4-0.7-4.6-1.7-6.5-3.2c-1.9-1.4-3.4-3.2-4.6-5.3c-1.2-2.1-1.8-4.6-1.8-7.4v-0.1c0-2.8,0.6-5.3,1.7-7.3c1.1-2.1,2.6-3.8,4.4-5.2
		c1.8-1.4,3.8-2.4,5.9-3.1c2.2-0.7,4.4-1,6.5-1c2.3,0,4.5,0.4,6.4,1.1c1.9,0.8,3.6,1.8,5,3.1c1.4,1.3,2.5,2.9,3.3,4.7
		C262.4,91.3,262.9,93.3,263.1,95.4z M252.9,93.8c-0.2-1.4-0.5-2.8-0.9-4.3c-0.4-1.4-1-2.7-1.6-3.8c-0.6-1.1-1.4-2-2.2-2.7
		c-0.8-0.7-1.8-1-2.8-1c-1.2,0-2.2,0.4-2.9,1.2c-0.7,0.8-1.3,1.8-1.6,2.9s-0.6,2.4-0.7,3.6s-0.1,2.3-0.1,3.2l0.1,0.9H252.9z"/>
	<path class="st0" d="M292.5,80.9h21.1v1l-4.5,0.7v29.2l4.5,0.7v1h-21.1v-1l3.2-0.7V96.4h-13.5v15.4l3.2,0.7v1h-21.1v-1l4.5-0.7
		V82.5l-4.5-0.7v-1h21.1v1l-3.2,0.7v12.2h13.5V82.5l-3.2-0.7V80.9z"/>
	<path class="st0" d="M341.7,82.5v29.2l4.5,0.7v1H325v-1l4.5-0.7V82.5H324l-5.5,12h-1V80.9h36.1v13.7h-1l-5.6-12H341.7z"/>
	<path class="st0" d="M380.2,110.3c-0.9,1.1-2.3,2-4,2.7c-1.8,0.7-4,1-6.6,1c-1.6,0-3.2-0.2-4.9-0.6c-1.7-0.4-3.2-1-4.5-2
		c-1.3-0.9-2.4-2.1-3.3-3.6c-0.8-1.5-1.3-3.3-1.3-5.5c0-2.5,0.6-4.5,1.7-6c1.1-1.5,2.5-2.7,4.1-3.5c1.6-0.8,3.3-1.3,5-1.6
		c1.7-0.3,3.2-0.4,4.6-0.4c2.3,0,4.2,0.3,5.7,0.8c1.5,0.6,2.7,1.4,3.6,2.4c0-1.6-0.3-3.1-0.8-4.6c-0.5-1.5-1.1-2.9-2-4.1
		c-0.8-1.2-1.8-2.2-3-2.9c-1.2-0.7-2.5-1.1-4.1-1.1c-2.5,0-4.7,0.9-6.7,2.8c-2,1.9-3.3,4.6-4.1,8h-1l-0.3-9.4c2.5-0.7,5-1.4,7.6-1.9
		c2.6-0.5,5.2-0.8,7.8-0.8c2.6,0,5.1,0.3,7.4,0.9c2.3,0.6,4.4,1.7,6.1,3.1c1.8,1.4,3.2,3.3,4.2,5.7c1,2.4,1.6,5.3,1.6,8.8v13
		l4.5,0.7v1h-17.4V110.3z M379.9,109.1c0-0.3,0-0.9-0.1-1.9c0-1-0.1-2.1-0.3-3.4c-0.2-1.3-0.4-2.6-0.7-4c-0.3-1.4-0.8-2.7-1.3-3.8
		c-0.5-1.2-1.2-2.1-2-2.9c-0.8-0.8-1.8-1.1-2.9-1.1c-0.6,0-1.2,0.2-1.7,0.6s-0.9,1-1.2,1.7c-0.3,0.7-0.6,1.5-0.7,2.4
		c-0.2,0.9-0.3,1.9-0.3,2.9c0,1.3,0.2,2.6,0.5,3.9c0.3,1.3,0.8,2.5,1.5,3.5c0.7,1,1.5,1.9,2.6,2.5c1.1,0.7,2.3,1,3.8,1
		C378.5,110.3,379.4,109.9,379.9,109.1z"/>
</g>
</svg>
